<?xml version="1.0" encoding="utf-8"?>
<!-- Generator: Adobe Illustrator 25.4.1, SVG Export Plug-In . SVG Version: 6.00 Build 0)  -->
<svg version="1.1" xmlns="http://www.w3.org/2000/svg" xmlns:xlink="http://www.w3.org/1999/xlink" x="0px" y="0px"
	 viewBox="0 0 521.1 521.1" style="enable-background:new 0 0 521.1 521.1;" xml:space="preserve">
<style type="text/css">
	.st0{fill:#181F29;}
	.st1{fill:none;stroke:#FFFFFF;stroke-width:15;stroke-linejoin:round;stroke-miterlimit:10;}
	.st2{fill:none;stroke:#FFFFFF;stroke-width:15;stroke-linecap:round;stroke-linejoin:round;stroke-miterlimit:10;}
</style>
<g id="Layer_1">
</g>
<g id="Layer_2">
	<circle class="st0" cx="260.5" cy="260.5" r="260.5"/>
	<g>
		<path class="st1" d="M110.5,322.9h300.1c16.6,0,30-13.4,30-30V153.2c0-16.6-13.4-30-30-30H110.5c-16.6,0-30,13.4-30,30v139.7
			C80.5,309.4,93.9,322.9,110.5,322.9z"/>
		<circle class="st1" cx="339.2" cy="189" r="22.5"/>
		<circle class="st1" cx="297.4" cy="375.4" r="22.5"/>
		<path class="st2" d="M316.7,186c-41.9-8.7-84,4.2-109.1,34.2c-21.2,25.3-23.1,54.4-23.3,65.3c0.1-4.5,0-22-13.1-36.9
			c-18.3-20.9-45.6-18-48.1-17.7"/>
		<path class="st2" d="M63.2,375.4c70.7,0,141.3,0,212,0"/>
		<path class="st2" d="M345.3,375.4c37.5,0,75,0,112.6,0"/>
	</g>
</g>
</svg>
