<?xml version="1.0" encoding="utf-8"?>
<!-- Generator: Adobe Illustrator 25.4.1, SVG Export Plug-In . SVG Version: 6.00 Build 0)  -->
<svg version="1.1" xmlns="http://www.w3.org/2000/svg" xmlns:xlink="http://www.w3.org/1999/xlink" x="0px" y="0px"
	 viewBox="0 0 64 64" style="enable-background:new 0 0 64 64;" xml:space="preserve">
<style type="text/css">
	.st0{fill:#181F29;}
	.st1{fill:#FFFFFF;}
</style>
<g id="Layer_1">
	<circle class="st0" cx="32" cy="32" r="32"/>
</g>
<g id="Layer_2">
	<g>
		<path class="st1" d="M34.1,17.9h-4.1c-0.5,0-1-0.4-1-1v-4.1c0-0.5,0.4-1,1-1h4.1c0.5,0,1,0.4,1,1v4.1
			C35.1,17.5,34.6,17.9,34.1,17.9z M30.1,16.7h3.7V13h-3.7V16.7z"/>
		<g>
			<path class="st1" d="M16.6,17.9h-4.1c-0.5,0-1-0.4-1-1v-4.1c0-0.5,0.4-1,1-1h4.1c0.5,0,1,0.4,1,1v4.1
				C17.6,17.5,17.1,17.9,16.6,17.9z M12.7,16.7h3.7V13h-3.7V16.7z"/>
			<path class="st1" d="M51.5,17.9h-4.1c-0.5,0-1-0.4-1-1v-4.1c0-0.5,0.4-1,1-1h4.1c0.5,0,1,0.4,1,1v4.1
				C52.5,17.5,52.1,17.9,51.5,17.9z M47.6,16.7h3.7V13h-3.7V16.7z"/>
		</g>
		<g>
			<path class="st1" d="M16.8,37.4h-4.1c-0.5,0-1-0.4-1-1v-4.1c0-0.5,0.4-1,1-1h4.1c0.5,0,1,0.4,1,1v4.1
				C17.8,37,17.4,37.4,16.8,37.4z M12.9,36.2h3.7v-3.7h-3.7V36.2z"/>
			<path class="st1" d="M51.3,37.4h-4.1c-0.5,0-1-0.4-1-1v-4.1c0-0.5,0.4-1,1-1h4.1c0.5,0,1,0.4,1,1v4.1
				C52.3,37,51.8,37.4,51.3,37.4z M47.4,36.2h3.7v-3.7h-3.7V36.2z"/>
		</g>
		<g>
			<path class="st1" d="M29.5,15.5H17.3c-0.3,0-0.6-0.3-0.6-0.6s0.3-0.6,0.6-0.6h12.3c0.3,0,0.6,0.3,0.6,0.6S29.9,15.5,29.5,15.5z"
				/>
			<path class="st1" d="M46.7,15.5H34.5c-0.3,0-0.6-0.3-0.6-0.6s0.3-0.6,0.6-0.6h12.3c0.3,0,0.6,0.3,0.6,0.6S47.1,15.5,46.7,15.5z"
				/>
		</g>
		<g>
			<path class="st1" d="M14.7,32.5C14.7,32.5,14.7,32.5,14.7,32.5c-0.3,0-0.6-0.3-0.6-0.6c0.1-2.4,0.7-7.2,4.5-11.5
				c1.8-2,3.9-3.6,6.4-4.8c1.4-0.6,2.9-1.1,4.4-1.4c0.3-0.1,0.6,0.2,0.7,0.5c0.1,0.3-0.2,0.6-0.5,0.7c-1.8,0.3-6.5,1.5-10.1,5.7
				c-3.6,4.2-4.1,8.9-4.2,10.8C15.3,32.3,15.1,32.5,14.7,32.5z"/>
			<path class="st1" d="M49.3,32.5c-0.3,0-0.6-0.3-0.6-0.6c-0.1-1.8-0.6-6.6-4.2-10.8c-3.6-4.2-8.3-5.4-10.1-5.7
				c-0.3-0.1-0.5-0.4-0.5-0.7c0.1-0.3,0.4-0.5,0.7-0.5c1.5,0.3,3,0.7,4.4,1.4c2.5,1.1,4.7,2.7,6.4,4.8c3.7,4.3,4.4,9.1,4.5,11.5
				C49.9,32.2,49.6,32.5,49.3,32.5C49.3,32.5,49.3,32.5,49.3,32.5z"/>
		</g>
		<g>
			<path class="st1" d="M32,35.1c-1.4,0-2.5-1.1-2.5-2.5c0-1.4,1.1-2.5,2.5-2.5c1.4,0,2.5,1.1,2.5,2.5C34.5,34,33.4,35.1,32,35.1z
				 M32,31.3c-0.7,0-1.3,0.6-1.3,1.3c0,0.7,0.6,1.3,1.3,1.3c0.7,0,1.3-0.6,1.3-1.3C33.3,31.9,32.7,31.3,32,31.3z"/>
			<g>
				<path class="st1" d="M26.7,52.2c-0.3,0-0.6-0.3-0.6-0.6v-7c0-0.3,0.3-0.6,0.6-0.6s0.6,0.3,0.6,0.6v7
					C27.3,51.9,27,52.2,26.7,52.2z"/>
				<path class="st1" d="M37.3,52.2c-0.3,0-0.6-0.3-0.6-0.6v-7c0-0.3,0.3-0.6,0.6-0.6s0.6,0.3,0.6,0.6v7
					C37.9,51.9,37.6,52.2,37.3,52.2z"/>
			</g>
			<path class="st1" d="M28.6,41.9c-0.3,0-0.6-0.2-0.6-0.5c-0.2-1.5-0.6-2.9-1.3-4.1c-0.6-1-1.3-1.9-2.2-2.7
				c-0.2-0.2-0.3-0.5-0.1-0.7l7.1-13.2c0.1-0.2,0.4-0.4,0.7-0.3c0.3,0.1,0.5,0.3,0.5,0.6v9.8c0,0.3-0.3,0.6-0.6,0.6
				c-0.3,0-0.6-0.3-0.6-0.6v-7.4l-5.8,10.7c0.8,0.8,1.5,1.7,2.1,2.7c0.8,1.4,1.3,3,1.5,4.6C29.3,41.6,29,41.9,28.6,41.9
				C28.7,41.9,28.6,41.9,28.6,41.9z"/>
			<path class="st1" d="M35.4,41.9C35.4,41.9,35.3,41.9,35.4,41.9c-0.4,0-0.6-0.3-0.6-0.7c0.2-1.6,0.7-3.2,1.5-4.6
				c0.6-1,1.3-1.9,2.1-2.7l-5.8-10.7v7.4c0,0.3-0.3,0.6-0.6,0.6c-0.3,0-0.6-0.3-0.6-0.6v-9.8c0-0.3,0.2-0.5,0.5-0.6
				c0.3-0.1,0.5,0.1,0.7,0.3l7.1,13.2c0.1,0.2,0.1,0.5-0.1,0.7c-0.9,0.8-1.6,1.7-2.2,2.7c-0.7,1.3-1.2,2.7-1.3,4.1
				C35.9,41.7,35.7,41.9,35.4,41.9z"/>
			<path class="st1" d="M37.1,45.1H26.9c-1.2,0-2.2-1-2.2-2.2c0-1.2,1-2.2,2.2-2.2h10.1c1.2,0,2.2,1,2.2,2.2
				C39.3,44.1,38.3,45.1,37.1,45.1z M26.9,41.9c-0.6,0-1,0.5-1,1c0,0.6,0.5,1,1,1h10.1c0.6,0,1-0.5,1-1c0-0.6-0.5-1-1-1H26.9z"/>
		</g>
	</g>
</g>
</svg>
