<?xml version="1.0" encoding="utf-8"?>
<!-- Generator: Adobe Illustrator 25.4.1, SVG Export Plug-In . SVG Version: 6.00 Build 0)  -->
<svg version="1.1" xmlns="http://www.w3.org/2000/svg" xmlns:xlink="http://www.w3.org/1999/xlink" x="0px" y="0px"
	 viewBox="0 0 521.1 521.1" style="enable-background:new 0 0 521.1 521.1;" xml:space="preserve">
<style type="text/css">
	.st0{fill:#181F29;}
	.st1{fill:none;stroke:#FFFFFF;stroke-width:15;stroke-miterlimit:10;}
	.st2{filter:url(#Adobe_OpacityMaskFilter);}
	.st3{fill:#FFFFFF;stroke:#FFFFFF;stroke-width:15;stroke-linecap:round;stroke-miterlimit:10;}
	.st4{mask:url(#SVGID_1_);}
	.st5{fill:#FFFFFF;}
	.st6{fill:none;stroke:#FFFFFF;stroke-width:15;stroke-linecap:round;stroke-miterlimit:10;}
</style>
<g id="Layer_3">
	<circle class="st0" cx="260.5" cy="260.5" r="260.5"/>
</g>
<g id="Layer_1">
</g>
<g id="Layer_2">
	<g>
		<circle class="st1" cx="260.5" cy="260.5" r="116.3"/>
		<g>
			<defs>
				<filter id="Adobe_OpacityMaskFilter" filterUnits="userSpaceOnUse" x="-11.9" y="-11.9" width="544.8" height="544.8">
					<feColorMatrix  type="matrix" values="1 0 0 0 0  0 1 0 0 0  0 0 1 0 0  0 0 0 1 0"/>
				</filter>
			</defs>
			<mask maskUnits="userSpaceOnUse" x="-11.9" y="-11.9" width="544.8" height="544.8" id="SVGID_1_">
				<g class="st2">
					<g>
						<path class="st3" d="M368.1,147.9c0,74.4,0,148.7,0,223.1"/>
						<path class="st3" d="M153,147.9c0,74.4,0,148.7,0,223.1"/>
						<path class="st3" d="M179.6,92.8c0,111.1,0,222.2,0,333.4"/>
						<path class="st3" d="M233.4,92.8c0,111.1,0,222.2,0,333.4"/>
						<path class="st3" d="M286.9,92.8c0,111.1,0,222.2,0,333.4"/>
						<path class="st3" d="M260,48.8c0,140.4,0,280.9,0,421.3"/>
						<path class="st3" d="M340.4,92.8c0,111.1,0,222.2,0,333.4"/>
						<path class="st3" d="M313.8,104.6c0,103.3,0,206.5,0,309.8"/>
						<path class="st3" d="M205.9,104.6c0,103.3,0,206.5,0,309.8"/>
					</g>
				</g>
			</mask>
			<g class="st4">
				<path class="st5" d="M260.5,138.1c67.6,0,122.4,54.8,122.4,122.4S328.2,383,260.5,383s-122.4-54.8-122.4-122.4
					S192.9,138.1,260.5,138.1 M260.5-11.9c-36.7,0-72.4,7.2-106.1,21.5C122,23.3,92.9,42.9,67.9,67.9c-25,25-44.6,54.1-58.3,86.5
					c-14.2,33.7-21.5,69.4-21.5,106.1c0,36.7,7.2,72.4,21.5,106.1c13.7,32.5,33.4,61.6,58.3,86.5c25,25,54.1,44.6,86.5,58.3
					c33.7,14.2,69.4,21.5,106.1,21.5s72.4-7.2,106.1-21.5c32.5-13.7,61.6-33.4,86.5-58.3c25-25,44.6-54.1,58.3-86.5
					c14.2-33.7,21.5-69.4,21.5-106.1c0-36.7-7.2-72.4-21.5-106.1c-13.7-32.5-33.4-61.6-58.3-86.5s-54.1-44.6-86.5-58.3
					C332.9-4.7,297.3-11.9,260.5-11.9L260.5-11.9z"/>
			</g>
			<path class="st6" d="M474.5,239.1c0,13.5,0,27.1,0,40.6"/>
			<path class="st6" d="M46.5,239.1c0,13.5,0,27.1,0,40.6"/>
			<path class="st6" d="M448.5,217.7c0,27.8,0,55.7,0,83.5"/>
			<path class="st6" d="M72.6,217.7c0,27.8,0,55.7,0,83.5"/>
			<path class="st6" d="M422.5,205.9c0,35.7,0,71.4,0,107.1"/>
			<path class="st6" d="M98.6,205.9c0,35.7,0,71.4,0,107.1"/>
			<path class="st6" d="M396.5,183.7c0,50.5,0,100.9,0,151.4"/>
			<path class="st6" d="M125,183.7c0,50.5,0,100.9,0,151.4"/>
		</g>
		<g>
			<path class="st6" d="M311.7,197.3c0,28,0,55.9,0,83.9"/>
			<path class="st6" d="M242.6,222.3c0,28,0,55.9,0,83.9"/>
			<circle class="st1" cx="295.1" cy="283" r="16.6"/>
			<circle class="st1" cx="226" cy="307.2" r="16.6"/>
			<path class="st6" d="M242.6,246.3c23-8,46.1-16,69.1-24"/>
			<path class="st6" d="M242.6,222.3c16-5.6,32.1-11.1,48.1-16.7"/>
		</g>
	</g>
</g>
</svg>
