<?xml version="1.0" encoding="utf-8"?>
<!-- Generator: Adobe Illustrator 25.4.1, SVG Export Plug-In . SVG Version: 6.00 Build 0)  -->
<svg version="1.1" xmlns="http://www.w3.org/2000/svg" xmlns:xlink="http://www.w3.org/1999/xlink" x="0px" y="0px"
	 viewBox="0 0 521.1 521.1" style="enable-background:new 0 0 521.1 521.1;" xml:space="preserve">
<style type="text/css">
	.st0{fill:#181F29;}
	.st1{fill:#FCFCFC;stroke:#FFFFFF;stroke-width:15;stroke-linecap:round;}
	.st2{fill:none;stroke:#FFFFFF;stroke-width:15;stroke-linecap:round;stroke-linejoin:round;}
	.st3{fill:none;stroke:#FFFFFF;stroke-width:15;stroke-linecap:round;}
</style>
<g id="Layer_1">
</g>
<g id="Layer_2">
	<circle class="st0" cx="260.5" cy="260.5" r="260.5"/>
	<g>
		<path class="st1" d="M197.1,156.7c37.3,0,74.5,0,111.8,0"/>
		<path class="st1" d="M197.1,188.1c29.4,0,58.8,0,88.2,0"/>
		<path class="st1" d="M197.1,219.2c20.3,0,40.7,0,61,0"/>
		<path class="st1" d="M196,250.2c12.6,0,25.1,0,37.7,0"/>
		<path class="st1" d="M197.1,355.8c41.5,0,83,0,124.5,0"/>
		<path class="st2" d="M161.7,200.8c-27.5,0-55.1,0-82.6,0c0.2-13.5,0.5-26.9,0.7-40.4c4.7-21.2,23.9-35.7,44.3-34.6
			c18.2,1.1,34.1,14.3,38.9,32.8c0.6,76.8,1.2,153.5,1.7,230.3c2.7,21.7,19.5,38.4,39.4,40.6c23.2,2.6,46.2-15,49.7-40.6
			c60.4,0,120.8,0,181.2,0"/>
		<path class="st2" d="M122.7,125.8c127.7,0.1,183.8,0.1,187.8,0c0.1,0,0.7,0,1.4,0c1.1,0,5.7,0.2,11.2,2.2c4,1.4,7.1,3.3,9.3,5"/>
		<path class="st2" d="M351.2,274c0,38.3,0,76.7,0,115"/>
		<path class="st2" d="M207.5,429.9c63.5,0,127,0,190.5,0c3.3-0.4,15.8-2.4,25.9-13.4c10.3-11.2,11.1-24.2,11.2-27.5"/>
		<g>
			<path class="st3" d="M441.5,122.7c-2.9-8.9-30-30.6-39.2-31.4c-0.6-0.1-1.1,0-1.2,0c-3.5,0.2-7.1,2.3-9.6,5.5
				c-47.7,59.6-95.5,119.2-143.2,178.7c-0.5,0.7-1,1.4-1.3,2.2c-14.8,36-25,62.4-26,67.2c-0.5,2.5-0.1,4.3,0.2,5.2
				c0.1,0.4,0.3,0.7,0.5,1c0.5,0.9,2.1,3.4,5.5,4.4c0.3,0.1,0.6,0.2,1.1,0.2c1,0.1,2.8,0.1,5.1-1c4.4-2,28-17.7,59.9-40
				c0.7-0.5,1.3-1.1,1.8-1.7c47.7-59.6,95.5-119.1,143.2-178.7c2.5-3.2,3.8-7.1,3.3-10.6C441.8,123.7,441.7,123.2,441.5,122.7z"/>
			<path class="st3" d="M403.6,176.4c-15-12-30-24-44.9-36"/>
			<path class="st3" d="M383.9,201c-15-12-30-24-44.9-36"/>
			<path class="st3" d="M295.2,311.2c-15-12-30-24-44.9-36"/>
			<path class="st3" d="M262.3,332.7c-8.6-6.9-17.3-13.8-25.9-20.8"/>
		</g>
	</g>
</g>
</svg>
