<?xml version="1.0" encoding="utf-8"?>
<!-- Generator: Adobe Illustrator 25.4.1, SVG Export Plug-In . SVG Version: 6.00 Build 0)  -->
<svg version="1.1" id="Layer_1" xmlns="http://www.w3.org/2000/svg" xmlns:xlink="http://www.w3.org/1999/xlink" x="0px" y="0px"
	 viewBox="0 0 1080 1080" style="enable-background:new 0 0 1080 1080;" xml:space="preserve">
<style type="text/css">
	.st0{fill:#181F29;}
</style>
<g>
	<path class="st0" d="M202,805.7V600.6h-33.6v-34.2h91c25,0,43.8,1.5,56.3,4.5c12.5,3,23.6,10.7,33.1,22.9
		c9.6,12.3,14.4,26.6,14.4,43.2c0,12.7-2.9,24.2-8.6,34.4c-5.7,10.2-14.1,18-25.1,23.2c15.2,5.2,26.9,13.9,35.1,26.1
		c8.2,12.1,12.3,26,12.3,41.6c0,13.5-3,25.8-9.1,36.8c-6.1,11-14.2,19.5-24.3,25.6c-10.1,6-21.1,10.1-33.1,12.2
		c-12,2.1-28.4,3.1-49.1,3.1h-93v-34.2H202z M243.3,680.3H269c19.7,0,33.4-3.4,41.2-10.3c7.8-6.9,11.7-17,11.7-30.4
		c0-26-17.6-38.9-52.9-38.9h-25.8V680.3z M243.3,805.7h15.5c20.3,0,35.2-1,44.6-3c9.4-2,17.1-6.8,23.1-14.4c6-7.5,8.9-17.2,8.9-29
		c0-10.7-2.9-19.8-8.6-27s-13-12.1-22-14.6c-9-2.4-21.7-3.6-38.1-3.6h-23.6V805.7z"/>
	<path class="st0" d="M436.8,805.7V600.6h-33.6v-34.2h91c25,0,43.8,1.5,56.3,4.5c12.5,3,23.6,10.7,33.1,22.9
		c9.6,12.3,14.4,26.6,14.4,43.2c0,12.7-2.9,24.2-8.6,34.4c-5.7,10.2-14.1,18-25.1,23.2c15.2,5.2,26.9,13.9,35.1,26.1
		c8.2,12.1,12.3,26,12.3,41.6c0,13.5-3,25.8-9.1,36.8s-14.2,19.5-24.3,25.6c-10.1,6-21.1,10.1-33.1,12.2c-12,2.1-28.4,3.1-49.1,3.1
		h-93v-34.2H436.8z M478.1,680.3h25.8c19.7,0,33.4-3.4,41.2-10.3c7.8-6.9,11.7-17,11.7-30.4c0-26-17.6-38.9-52.9-38.9h-25.8V680.3z
		 M478.1,805.7h15.5c20.3,0,35.2-1,44.6-3c9.4-2,17.1-6.8,23.1-14.4c6-7.5,8.9-17.2,8.9-29c0-10.7-2.9-19.8-8.6-27
		c-5.7-7.3-13-12.1-22-14.6c-9-2.4-21.7-3.6-38.1-3.6h-23.6V805.7z"/>
	<path class="st0" d="M671.6,805.7V600.6h-33.6v-34.2h91c25,0,43.8,1.5,56.3,4.5c12.5,3,23.6,10.7,33.1,22.9
		c9.6,12.3,14.4,26.6,14.4,43.2c0,12.7-2.9,24.2-8.6,34.4c-5.7,10.2-14.1,18-25.1,23.2c15.2,5.2,26.9,13.9,35.1,26.1
		c8.2,12.1,12.3,26,12.3,41.6c0,13.5-3,25.8-9.1,36.8s-14.2,19.5-24.3,25.6c-10.1,6-21.1,10.1-33.1,12.2c-12,2.1-28.4,3.1-49.1,3.1
		h-93v-34.2H671.6z M712.9,680.3h25.8c19.7,0,33.4-3.4,41.2-10.3c7.8-6.9,11.7-17,11.7-30.4c0-26-17.6-38.9-52.9-38.9h-25.8V680.3z
		 M712.9,805.7h15.5c20.3,0,35.2-1,44.6-3c9.4-2,17.1-6.8,23.1-14.4c6-7.5,8.9-17.2,8.9-29c0-10.7-2.9-19.8-8.6-27
		c-5.7-7.3-13-12.1-22-14.6c-9-2.4-21.7-3.6-38.1-3.6h-23.6V805.7z"/>
	<path class="st0" d="M895.2,167.6v727.6H167.6c-4.6,0-9,1.8-12.2,5.1L5.1,1050.5c-10.9,10.9-3.2,29.5,12.2,29.5h877.9h167.6
		c9.5,0,17.3-7.7,17.3-17.3V895.2V17.3c0-15.4-18.6-23.1-29.5-12.2L900.2,155.4C897,158.6,895.2,163,895.2,167.6z"/>
	<path class="st0" d="M59.8,295.1V59.8h235.3c1.5,0,2.9-0.6,4-1.6l48.6-48.6c3.5-3.5,1-9.5-4-9.5H59.8H5.6C2.5,0,0,2.5,0,5.6v54.2
		v283.9c0,5,6,7.5,9.5,4L58.1,299C59.2,298,59.8,296.5,59.8,295.1z"/>
	<path class="st0" d="M212,226.1h-74.7c-7.8,0-14.1-6.3-14.1-14.1v-74.7c0-7.8,6.3-14.1,14.1-14.1H212c7.8,0,14.1,6.3,14.1,14.1V212
		C226.1,219.8,219.7,226.1,212,226.1z"/>
</g>
</svg>
