<?xml version="1.0" encoding="utf-8"?>
<!-- Generator: Adobe Illustrator 25.4.1, SVG Export Plug-In . SVG Version: 6.00 Build 0)  -->
<svg version="1.1" id="Layer_1" xmlns="http://www.w3.org/2000/svg" xmlns:xlink="http://www.w3.org/1999/xlink" x="0px" y="0px"
	 viewBox="0 0 313.8 87" style="enable-background:new 0 0 313.8 87;" xml:space="preserve">
<style type="text/css">
	.st0{enable-background:new    ;}
	.st1{fill:#181F29;}
	.st2{fill:#FF7657;}
	.st3{fill:none;stroke:#181F29;stroke-miterlimit:10;}
</style>
<g class="st0">
	<path class="st1" d="M48.7,31.5v13.7H37V31.5c0-2-1-2.9-2-2.9c-1,0-2,1-2,2.9v13.7H21.3V31.5c0-2-1-2.9-2-2.9c-1,0-2,1-2,2.9v13.7
		H5.7V19.3h11.3l1,2.9c0,0,2-3.7,6.9-3.7s7.3,4.6,7.3,4.6s2.9-4.6,7.8-4.6S48.7,22.5,48.7,31.5z"/>
</g>
<g class="st0">
	<path class="st1" d="M79.1,32.3c0,4.2,0,9.2,0,13H67.8l-1-2.9c0,0-2,3.7-6.4,3.7c-5.4,0-8.8-3.4-8.8-8.1c0-4.6,3.4-8.1,11.7-8.1
		h3.9c0,0-0.5-2.7-4.4-2.7c-2.4,0-4.4,2-4.4,2l-4.2-6.6c0,0,3.7-3.9,10.3-3.9C72.9,18.5,79.1,24.7,79.1,32.3z M67.3,34
		c-2.7,0-3.9,1.2-3.9,2.7c0,0.7,0.7,1.5,1.5,1.5C66.1,38.1,67.3,36.9,67.3,34z"/>
</g>
<path class="st1" d="M81.5,29.1v-9.8h3.4V11h11.7v8.3h4.4v9.8h-4.4v4.2c0,2,1,2.9,2.4,2.9c1,0,2-0.2,2-0.2v9.8c0,0-2,0.5-4.4,0.5
	c-7.3,0-11.7-4.4-11.7-13v-4.2H81.5z"/>
<path class="st1" d="M104.5,29.1v-9.8h3.4V11h11.7v8.3h4.4v9.8h-4.4v4.2c0,2,1,2.9,2.4,2.9c1,0,2-0.2,2-0.2v9.8c0,0-2,0.5-4.4,0.5
	c-7.3,0-11.7-4.4-11.7-13v-4.2H104.5z"/>
<g class="st0">
	<path class="st1" d="M138.8,74.2V49.7h3.7v3.7c0.6-1,1.4-1.9,2.6-2.8c1.2-0.9,2.8-1.3,4.8-1.3c1.6,0,3.1,0.4,4.5,1.3
		c1.4,0.9,2.5,2.1,3.3,3.6c0.3-0.6,0.8-1.2,1.5-2c0.7-0.8,1.6-1.5,2.8-2.1s2.5-0.9,4.1-0.9c1.6,0,3,0.4,4.4,1.2s2.5,2,3.4,3.5
		c0.9,1.5,1.3,3.3,1.3,5.4v14.8h-3.7V59.5c0-2.1-0.6-3.7-1.7-5c-1.2-1.3-2.6-1.9-4.3-1.9c-1.8,0-3.3,0.6-4.6,1.8
		c-1.3,1.2-2,2.9-2,5.1v14.6h-3.7V59.5c0-2.1-0.6-3.7-1.7-5c-1.2-1.3-2.6-1.9-4.3-1.9c-1.8,0-3.3,0.6-4.6,1.8c-1.3,1.2-2,2.9-2,5.1
		v14.6H138.8z"/>
	<path class="st1" d="M191.9,74.6c-2.5,0-4.6-0.6-6.5-1.7c-1.8-1.1-3.2-2.6-4.2-4.6c-1-1.9-1.5-4-1.5-6.4c0-2.3,0.5-4.5,1.5-6.4
		c1-1.9,2.4-3.4,4.2-4.5c1.8-1.1,4-1.7,6.5-1.7c2.5,0,4.7,0.6,6.5,1.7c1.8,1.1,3.2,2.6,4.2,4.5s1.5,4,1.5,6.4c0,2.3-0.5,4.4-1.5,6.4
		c-1,1.9-2.4,3.5-4.2,4.6C196.6,74,194.4,74.6,191.9,74.6z M191.9,71.2c1.8,0,3.4-0.4,4.6-1.3c1.3-0.8,2.2-2,2.9-3.4s1-3,1-4.6
		c0-1.7-0.3-3.2-1-4.6c-0.7-1.4-1.6-2.5-2.9-3.4c-1.3-0.8-2.8-1.3-4.6-1.3c-1.8,0-3.3,0.4-4.6,1.3c-1.3,0.8-2.2,2-2.9,3.4
		c-0.7,1.4-1,3-1,4.6c0,1.7,0.3,3.2,1,4.6s1.6,2.6,2.9,3.4C188.6,70.8,190.1,71.2,191.9,71.2z"/>
	<path class="st1" d="M211.5,74.2V52.9h-5v-3.2h5V41h3.7v8.8h5.6v3.2h-5.6v21.2H211.5z"/>
	<path class="st1" d="M224.7,45.6v-4.8h4v4.8H224.7z M224.8,74.2V49.7h3.7v24.5H224.8z"/>
	<path class="st1" d="M245.5,74.6c-2.5,0-4.6-0.6-6.5-1.7c-1.8-1.1-3.2-2.6-4.2-4.6c-1-1.9-1.5-4-1.5-6.4c0-2.3,0.5-4.5,1.5-6.4
		s2.4-3.4,4.2-4.5c1.8-1.1,4-1.7,6.5-1.7c2.5,0,4.7,0.6,6.5,1.7c1.8,1.1,3.2,2.6,4.2,4.5s1.5,4,1.5,6.4c0,2.3-0.5,4.4-1.5,6.4
		c-1,1.9-2.4,3.5-4.2,4.6C250.2,74,248,74.6,245.5,74.6z M245.5,71.2c1.8,0,3.4-0.4,4.6-1.3c1.3-0.8,2.2-2,2.9-3.4
		c0.7-1.4,1-3,1-4.6c0-1.7-0.3-3.2-1-4.6c-0.7-1.4-1.6-2.5-2.9-3.4c-1.3-0.8-2.8-1.3-4.6-1.3c-1.8,0-3.3,0.4-4.6,1.3
		c-1.3,0.8-2.2,2-2.9,3.4c-0.7,1.4-1,3-1,4.6c0,1.7,0.3,3.2,1,4.6c0.7,1.4,1.6,2.6,2.9,3.4C242.2,70.8,243.7,71.2,245.5,71.2z"/>
	<path class="st1" d="M262.5,74.2V49.7h3.7v3.8c0.9-1.2,2-2.2,3.2-3c1.3-0.8,2.9-1.2,4.9-1.2c1.7,0,3.3,0.4,4.8,1.2
		c1.5,0.8,2.7,2,3.6,3.6c0.9,1.6,1.4,3.5,1.4,5.8v14.2h-3.7V60c0-2.2-0.6-4-1.9-5.4c-1.3-1.4-2.9-2-4.9-2c-1.4,0-2.6,0.3-3.7,0.9
		c-1.1,0.6-2,1.5-2.7,2.6c-0.7,1.1-1,2.4-1,3.9v14.1H262.5z"/>
	<path class="st1" d="M299.1,74.6c-2.3,0-4.2-0.4-5.7-1.1c-1.5-0.8-2.7-1.7-3.5-3c-0.8-1.2-1.3-2.6-1.4-4h3.8
		c0.1,0.8,0.4,1.6,0.9,2.4c0.5,0.8,1.2,1.4,2.2,1.9c1,0.5,2.3,0.7,3.8,0.7c0.5,0,1.1,0,1.8-0.1s1.4-0.3,2.1-0.5
		c0.7-0.3,1.2-0.7,1.7-1.2c0.5-0.5,0.7-1.2,0.7-2c0-1-0.4-1.8-1.2-2.3c-0.8-0.6-1.8-1-3-1.3c-1.2-0.3-2.6-0.6-3.9-0.9
		c-1.4-0.3-2.7-0.7-3.9-1.1c-1.2-0.5-2.3-1.1-3-2c-0.8-0.9-1.2-2-1.2-3.5c0-2.2,0.8-3.9,2.4-5.2c1.6-1.2,4-1.8,7.2-1.8
		c2.2,0,3.9,0.3,5.3,1c1.4,0.7,2.4,1.5,3.1,2.6s1.1,2.2,1.2,3.4h-3.7c-0.1-1-0.6-1.9-1.5-2.7c-0.9-0.8-2.4-1.1-4.4-1.1
		c-3.9,0-5.8,1.2-5.8,3.5c0,1,0.4,1.7,1.2,2.3c0.8,0.5,1.8,0.9,3,1.2c1.2,0.3,2.6,0.6,3.9,0.9s2.7,0.7,3.9,1.1
		c1.2,0.5,2.3,1.2,3,2.1c0.8,0.9,1.2,2.1,1.2,3.6c0,2.4-0.9,4.2-2.7,5.5S302.1,74.6,299.1,74.6z"/>
</g>
<rect x="129.6" y="18.8" class="st1" width="11.7" height="25.9"/>
<polygon class="st2" points="135.5,15.5 132.6,10.5 129.7,5.5 135.5,5.5 141.3,5.5 138.4,10.5 "/>
<path class="st3" d="M130.2,44.3v37.2h10.8"/>
</svg>
