<?xml version="1.0" encoding="utf-8"?>
<!-- Generator: Adobe Illustrator 25.4.1, SVG Export Plug-In . SVG Version: 6.00 Build 0)  -->
<svg version="1.1" id="Layer_1" xmlns="http://www.w3.org/2000/svg" xmlns:xlink="http://www.w3.org/1999/xlink" x="0px" y="0px"
	 viewBox="0 0 1494 1080" style="enable-background:new 0 0 1494 1080;" xml:space="preserve">
<style type="text/css">
	.st0{fill:none;stroke:#181F29;stroke-width:5;stroke-miterlimit:10;}
	.st1{fill:#181F29;}
	.st2{fill:#FFFFFF;stroke:#000000;stroke-miterlimit:10;}
	.st3{fill:#FF1595;}
	.st4{fill:none;stroke:#FF1595;stroke-width:0.5;stroke-linecap:round;stroke-miterlimit:10;}
	.st5{fill:#F5E6DF;}
	.st6{fill:none;stroke:#181F29;stroke-width:3;stroke-linejoin:round;stroke-miterlimit:10;}
	.st7{fill:none;stroke:#181F29;stroke-width:2;stroke-linecap:round;stroke-miterlimit:10;}
</style>
<image style="overflow:visible;" width="1200" height="960" xlink:href="pngtree-play-video-cartoon-media-png-image_4562868.jpg"  transform="matrix(1 0 0 1 233.7071 -1110.6666)">
</image>
<image style="overflow:visible;" width="1200" height="960" xlink:href="pngtree-play-video-cartoon-media-png-image_4562868.jpg"  transform="matrix(0.5 0 0 0.5 2564.3115 -832)">
</image>
<rect x="104.7" y="137.3" class="st0" width="1284.7" height="805.3"/>
<rect x="156.4" y="189.1" class="st1" width="1181.2" height="701.8"/>
<path class="st2" d="M3076-500h-426.4c-1.7,0-3-1.3-3-3v-25.6c0-1.7,1.3-3,3-3H3076c1.7,0,3,1.3,3,3v25.6
	C3079-501.3,3077.6-500,3076-500z"/>
<polygon class="st2" points="2673.5,-515.8 2659.5,-523.9 2659.5,-507.7 "/>
<rect x="2697.2" y="-520.4" class="st2" width="214" height="9.3"/>
<g>
	<path class="st3" d="M3052.3-518.7c0,1.4,0,2.8,0,4.2c2,0.9,4,1.8,6,2.7v-9.2C3056.3-520.3,3054.3-519.5,3052.3-518.7z"/>
	<path class="st4" d="M3059.8-519.6c0.3,0.3,1.5,1.6,1.6,3.8c0,2.3-1.3,3.7-1.6,4"/>
	<path class="st4" d="M3061.5-520.2c0.3,0.3,1.5,1.9,1.6,4.3c0,2.6-1.3,4.2-1.6,4.5"/>
	<path class="st4" d="M3063.1-521.9c0.4,0.5,2,2.6,2.1,5.9c0.1,3.5-1.7,5.8-2.1,6.3"/>
</g>
<path class="st5" d="M804.4,537.8l-114.9-66.3c-1.7-1-3.8,0.2-3.8,2.2v132.6c0,2,2.1,3.2,3.8,2.2l114.9-66.3
	C806.1,541.2,806.1,538.8,804.4,537.8z"/>
<path class="st2" d="M1242.4,856.8H251.1c-1.7,0-3-1.3-3-3V787c0-1.7,1.3-3,3-3h991.3c1.7,0,3,1.3,3,3v66.8
	C1245.4,855.4,1244,856.8,1242.4,856.8z"/>
<polygon class="st6" points="310.5,820.4 278.2,801.8 278.2,839.1 "/>
<rect x="365.2" y="809.7" class="st6" width="493.5" height="21.5"/>
<path class="st7" d="M1200.9,811.5c0.5,0.7,3,3.8,3,8.7c0.1,5.2-2.5,8.6-3,9.2"/>
<path class="st7" d="M1206.2,808.1c0.8,0.9,4,5.3,4.2,12c0.1,7.2-3.5,11.9-4.2,12.7"/>
<path class="st7" d="M1211.2,804.3c1,1.2,5.3,6.8,5.5,15.7c0.2,9.4-4.6,15.4-5.5,16.5"/>
<path class="st1" d="M1193.4,820.4L1193.4,820.4l0-9.5c0-0.5-0.5-0.9-1-0.7c-4.4,1.5-8.8,3-13.2,4.4c-0.3,0.1-0.5,0.4-0.5,0.7
	c0,1.7,0,3.4,0,5.1c0,1.7,0,3.4,0,5.1c0,0.3,0.2,0.6,0.5,0.7c4.4,1.5,8.8,3,13.2,4.4c0.5,0.2,1-0.2,1-0.7L1193.4,820.4L1193.4,820.4
	z"/>
</svg>
